<?xml version="1.0" encoding="UTF-8"?>
<!DOCTYPE svg PUBLIC "-//W3C//DTD SVG 1.1//EN" "http://www.w3.org/Graphics/SVG/1.1/DTD/svg11.dtd">
<svg xmlns="http://www.w3.org/2000/svg" version="1.1" width="1000px" height="1000px" style="shape-rendering:geometricPrecision; text-rendering:geometricPrecision; image-rendering:optimizeQuality; fill-rule:evenodd; clip-rule:evenodd" xmlns:xlink="http://www.w3.org/1999/xlink">
<g><path style="opacity:0.995" fill="#d6c4c3" d="M 821.5,12.5 C 822.5,12.5 823.5,12.5 824.5,12.5C 821.833,82.1629 819.167,151.83 816.5,221.5C 691.443,241.565 566.443,262.065 441.5,283C 440.204,286.909 439.537,291.075 439.5,295.5C 437.927,331.494 436.594,367.494 435.5,403.5C 550.167,384.5 664.833,365.5 779.5,346.5C 776.654,414.824 773.988,483.157 771.5,551.5C 657.726,569.685 544.06,588.518 430.5,608C 428.767,649.759 427.433,691.592 426.5,733.5C 554.571,712.933 682.571,691.933 810.5,670.5C 808.568,735.827 806.734,801.16 805,866.5C 805.072,871.308 804.239,875.808 802.5,880C 589.49,915.168 376.49,950.335 163.5,985.5C 172.379,696.158 181.379,406.825 190.5,117.5C 401.012,82.8036 611.345,47.8036 821.5,12.5 Z"/></g>
</svg>
